<svg viewBox="0 0 10000 10000" xmlns="http://www.w3.org/2000/svg">
<path d="M0,0 l10000,0 l0,10000 l-10000,0 z" fill="white"/>
<path d="M3626,9820 l710,0 l0,180 l-710,0 z" fill="#fe00ff" stroke="black" stroke-width="5"/>
<path d="M0,5760 l944,0 l0,2490 l-944,0 z" fill="#bb00ff" stroke="black" stroke-width="5"/>
<path d="M1858,560 l5,0 l0,9440 l-5,0 z" fill="#0400ff" stroke="black" stroke-width="5"/>
<path d="M2226,560 l143,0 l0,9440 l-143,0 z" fill="#ea00ff" stroke="black" stroke-width="5"/>
<path d="M2369,560 l179,0 l0,8684 l-179,0 z" fill="#fe00ff" stroke="black" stroke-width="5"/>
<path d="M5498,7091 l1173,0 l0,619 l-1173,0 z" fill="#fe00ff" stroke="black" stroke-width="5"/>
<path d="M6740,890 l1402,0 l0,1590 l-1402,0 z" fill="#fe00ff" stroke="black" stroke-width="5"/>
<path d="M0,5023 l1858,0 l0,737 l-1858,0 z" fill="#5800ff" stroke="black" stroke-width="5"/>
<path d="M8142,0 l218,0 l0,9968 l-218,0 z" fill="#fe00ff" stroke="black" stroke-width="5"/>
<path d="M5498,578 l1060,0 l0,29 l-1060,0 z" fill="#fe00ff" stroke="black" stroke-width="5"/>
<path d="M2548,0 l1230,0 l0,4224 l-1230,0 z" fill="#fa00ff" stroke="black" stroke-width="5"/>
<path d="M944,9298 l507,0 l0,327 l-507,0 z" fill="#fe00ff" stroke="black" stroke-width="5"/>
<path d="M8360,3049 l104,0 l0,6951 l-104,0 z" fill="#1100ff" stroke="black" stroke-width="5"/>
<path d="M3268,8160 l642,0 l0,474 l-642,0 z" fill="#fe00ff" stroke="black" stroke-width="5"/>
<path d="M6717,8510 l300,0 l0,24 l-300,0 z" fill="#fe00ff" stroke="black" stroke-width="5"/>
<path d="M2548,5527 l1362,0 l0,1974 l-1362,0 z" fill="#fe00ff" stroke="black" stroke-width="5"/>
<path d="M4366,3456 l669,0 l0,1829 l-669,0 z" fill="#fe00ff" stroke="black" stroke-width="5"/>
<path d="M9370,9563 l272,0 l0,304 l-272,0 z" fill="#fe00ff" stroke="black" stroke-width="5"/>
<path d="M1920,560 l306,0 l0,190 l-306,0 z" fill="#fe00ff" stroke="black" stroke-width="5"/>
<path d="M5498,5939 l1084,0 l0,1152 l-1084,0 z" fill="#fe00ff" stroke="black" stroke-width="5"/>
<path d="M6768,2859 l1374,0 l0,600 l-1374,0 z" fill="#fe00ff" stroke="black" stroke-width="5"/>
<path d="M1863,1978 l363,0 l0,477 l-363,0 z" fill="#fe00ff" stroke="black" stroke-width="5"/>
<path d="M8464,3049 l172,0 l0,6514 l-172,0 z" fill="#fe00ff" stroke="black" stroke-width="5"/>
<path d="M4366,5285 l669,0 l0,4457 l-669,0 z" fill="#fe00ff" stroke="black" stroke-width="5"/>
<path d="M944,5760 l507,0 l0,3538 l-507,0 z" fill="#fe00ff" stroke="black" stroke-width="5"/>
<path d="M2548,4224 l1341,0 l0,1303 l-1341,0 z" fill="#fe00ff" stroke="black" stroke-width="5"/>
<path d="M7127,7900 l1015,0 l0,2100 l-1015,0 z" fill="#fe00ff" stroke="black" stroke-width="5"/>
<path d="M0,8250 l944,0 l0,1072 l-944,0 z" fill="#fe00ff" stroke="black" stroke-width="5"/>
<path d="M5647,1959 l1093,0 l0,2003 l-1093,0 z" fill="#fe00ff" stroke="black" stroke-width="5"/>
<path d="M2548,7501 l720,0 l0,2499 l-720,0 z" fill="#a100ff" stroke="black" stroke-width="5"/>
<path d="M5628,5722 l954,0 l0,214 l-954,0 z" fill="#fe00ff" stroke="black" stroke-width="5"/>
<path d="M6582,7900 l435,0 l0,529 l-435,0 z" fill="#fe00ff" stroke="black" stroke-width="5"/>
<path d="M5215,578 l283,0 l0,8092 l-283,0 z" fill="#fe00ff" stroke="black" stroke-width="5"/>
<path d="M5498,607 l1242,0 l0,1352 l-1242,0 z" fill="#fe00ff" stroke="black" stroke-width="5"/>
<path d="M3778,578 l1257,0 l0,1415 l-1257,0 z" fill="#6900ff" stroke="black" stroke-width="5"/>
<path d="M0,2971 l1858,0 l0,1877 l-1858,0 z" fill="#fe00ff" stroke="black" stroke-width="5"/>
<path d="M5035,578 l180,0 l0,9422 l-180,0 z" fill="#4b00ff" stroke="black" stroke-width="5"/>
<path d="M4366,1993 l669,0 l0,1463 l-669,0 z" fill="#fe00ff" stroke="black" stroke-width="5"/>
<path d="M8360,661 l1640,0 l0,2388 l-1640,0 z" fill="#fe00ff" stroke="black" stroke-width="5"/>
<path d="M8636,3049 l1364,0 l0,4531 l-1364,0 z" fill="#fe00ff" stroke="black" stroke-width="5"/>
<path d="M3778,0 l4364,0 l0,578 l-4364,0 z" fill="#5d00ff" stroke="black" stroke-width="5"/>
<path d="M6725,6876 l1417,0 l0,1024 l-1417,0 z" fill="#fe00ff" stroke="black" stroke-width="5"/>
<path d="M1451,5760 l407,0 l0,4240 l-407,0 z" fill="#b000ff" stroke="black" stroke-width="5"/>
<path d="M3910,1993 l456,0 l0,7827 l-456,0 z" fill="#f700ff" stroke="black" stroke-width="5"/>
<path d="M7017,7943 l110,0 l0,1347 l-110,0 z" fill="#fe00ff" stroke="black" stroke-width="5"/>
<path d="M3778,1993 l132,0 l0,2231 l-132,0 z" fill="#8a00ff" stroke="black" stroke-width="5"/>
<path d="M8636,9867 l128,0 l0,133 l-128,0 z" fill="#fe00ff" stroke="black" stroke-width="5"/>
<path d="M6768,6454 l1159,0 l0,422 l-1159,0 z" fill="#fe00ff" stroke="black" stroke-width="5"/>
<path d="M0,0 l2548,0 l0,560 l-2548,0 z" fill="#2500ff" stroke="black" stroke-width="5"/>
<path d="M0,4848 l1599,0 l0,175 l-1599,0 z" fill="#fe00ff" stroke="black" stroke-width="5"/>
<path d="M6582,3962 l82,0 l0,2908 l-82,0 z" fill="#fe00ff" stroke="black" stroke-width="5"/>
<path d="M1863,3626 l363,0 l0,4781 l-363,0 z" fill="#fe00ff" stroke="black" stroke-width="5"/>
<path d="M4305,9790 l60,0 l0,60 l-60,0 z" fill="green"/>
<path d="M4335,9820 l-354,90" stroke="black" stroke-width="5"/>
<path d="M29,8198 l60,0 l0,60 l-60,0 z" fill="green"/>
<path d="M59,8228 l413,-1223" stroke="black" stroke-width="5"/>
<path d="M1828,5212 l60,0 l0,60 l-60,0 z" fill="green"/>
<path d="M1858,5242 l2.5,38" stroke="black" stroke-width="5"/>
<path d="M2338,1087 l60,0 l0,60 l-60,0 z" fill="green"/>
<path d="M2368,1117 l-70.5,4163" stroke="black" stroke-width="5"/>
<path d="M2477,530 l60,0 l0,60 l-60,0 z" fill="green"/>
<path d="M2507,560 l-48.5,4342" stroke="black" stroke-width="5"/>
<path d="M6503,7679 l60,0 l0,60 l-60,0 z" fill="green"/>
<path d="M6533,7709 l-448.5,-308.5" stroke="black" stroke-width="5"/>
<path d="M6710,860 l60,0 l0,60 l-60,0 z" fill="green"/>
<path d="M6740,890 l701,795" stroke="black" stroke-width="5"/>
<path d="M1438,5634 l60,0 l0,60 l-60,0 z" fill="green"/>
<path d="M1468,5664 l-539,-272.5" stroke="black" stroke-width="5"/>
<path d="M8266,7240 l60,0 l0,60 l-60,0 z" fill="green"/>
<path d="M8296,7270 l-45,-2286" stroke="black" stroke-width="5"/>
<path d="M5680,548 l60,0 l0,60 l-60,0 z" fill="green"/>
<path d="M5710,578 l318,14.5" stroke="black" stroke-width="5"/>
<path d="M3214,2300 l60,0 l0,60 l-60,0 z" fill="green"/>
<path d="M3244,2330 l-81,-218" stroke="black" stroke-width="5"/>
<path d="M969,9268 l60,0 l0,60 l-60,0 z" fill="green"/>
<path d="M999,9298 l198.5,163.5" stroke="black" stroke-width="5"/>
<path d="M8352,4995 l60,0 l0,60 l-60,0 z" fill="green"/>
<path d="M8382,5025 l30,1499.5" stroke="black" stroke-width="5"/>
<path d="M3698,8130 l60,0 l0,60 l-60,0 z" fill="green"/>
<path d="M3728,8160 l-139,237" stroke="black" stroke-width="5"/>
<path d="M6687,8480 l60,0 l0,60 l-60,0 z" fill="green"/>
<path d="M6717,8510 l150,12" stroke="black" stroke-width="5"/>
<path d="M3421,5497 l60,0 l0,60 l-60,0 z" fill="green"/>
<path d="M3451,5527 l-222,987" stroke="black" stroke-width="5"/>
<path d="M4653,5254 l60,0 l0,60 l-60,0 z" fill="green"/>
<path d="M4683,5284 l17.5,-913.5" stroke="black" stroke-width="5"/>
<path d="M9611,9823 l60,0 l0,60 l-60,0 z" fill="green"/>
<path d="M9641,9853 l-135,-138" stroke="black" stroke-width="5"/>
<path d="M1890,569 l60,0 l0,60 l-60,0 z" fill="green"/>
<path d="M1920,599 l153,56" stroke="black" stroke-width="5"/>
<path d="M5533,5909 l60,0 l0,60 l-60,0 z" fill="green"/>
<path d="M5563,5939 l477,576" stroke="black" stroke-width="5"/>
<path d="M7376,3428 l60,0 l0,60 l-60,0 z" fill="green"/>
<path d="M7406,3458 l49,-299" stroke="black" stroke-width="5"/>
<path d="M2195,2424 l60,0 l0,60 l-60,0 z" fill="green"/>
<path d="M2225,2454 l-180.5,-237.5" stroke="black" stroke-width="5"/>
<path d="M8434,5358 l60,0 l0,60 l-60,0 z" fill="green"/>
<path d="M8464,5388 l86,918" stroke="black" stroke-width="5"/>
<path d="M4758,6442 l60,0 l0,60 l-60,0 z" fill="green"/>
<path d="M4788,6472 l-87.5,1041.5" stroke="black" stroke-width="5"/>
<path d="M1420,8645 l60,0 l0,60 l-60,0 z" fill="green"/>
<path d="M1450,8675 l-252.5,-1146" stroke="black" stroke-width="5"/>
<path d="M3367,5448 l60,0 l0,60 l-60,0 z" fill="green"/>
<path d="M3397,5478 l-178.5,-602.5" stroke="black" stroke-width="5"/>
<path d="M7349,8003 l60,0 l0,60 l-60,0 z" fill="green"/>
<path d="M7379,8033 l255.5,917" stroke="black" stroke-width="5"/>
<path d="M913,8220 l60,0 l0,60 l-60,0 z" fill="green"/>
<path d="M943,8250 l-471,536" stroke="black" stroke-width="5"/>
<path d="M5617,3479 l60,0 l0,60 l-60,0 z" fill="green"/>
<path d="M5647,3509 l546.5,-548.5" stroke="black" stroke-width="5"/>
<path d="M3184,9289 l60,0 l0,60 l-60,0 z" fill="green"/>
<path d="M3214,9319 l-306,-568.5" stroke="black" stroke-width="5"/>
<path d="M5838,5905 l60,0 l0,60 l-60,0 z" fill="green"/>
<path d="M5868,5935 l237,-106" stroke="black" stroke-width="5"/>
<path d="M6986,8195 l60,0 l0,60 l-60,0 z" fill="green"/>
<path d="M7016,8225 l-216.5,-60.5" stroke="black" stroke-width="5"/>
<path d="M5185,5736 l60,0 l0,60 l-60,0 z" fill="green"/>
<path d="M5215,5766 l141.5,-1142" stroke="black" stroke-width="5"/>
<path d="M5645,1095 l60,0 l0,60 l-60,0 z" fill="green"/>
<path d="M5675,1125 l444,158" stroke="black" stroke-width="5"/>
<path d="M4404,1456 l60,0 l0,60 l-60,0 z" fill="green"/>
<path d="M4434,1486 l-27.5,-200.5" stroke="black" stroke-width="5"/>
<path d="M103,4817 l60,0 l0,60 l-60,0 z" fill="green"/>
<path d="M133,4847 l796,-937.5" stroke="black" stroke-width="5"/>
<path d="M5093,3770 l60,0 l0,60 l-60,0 z" fill="green"/>
<path d="M5123,3800 l2,1489" stroke="black" stroke-width="5"/>
<path d="M4410,1963 l60,0 l0,60 l-60,0 z" fill="green"/>
<path d="M4440,1993 l260.5,731.5" stroke="black" stroke-width="5"/>
<path d="M9015,3018 l60,0 l0,60 l-60,0 z" fill="green"/>
<path d="M9045,3048 l135,-1193" stroke="black" stroke-width="5"/>
<path d="M8960,3194 l60,0 l0,60 l-60,0 z" fill="green"/>
<path d="M8990,3224 l328,2090.5" stroke="black" stroke-width="5"/>
<path d="M5146,511 l60,0 l0,60 l-60,0 z" fill="green"/>
<path d="M5176,541 l784,-252" stroke="black" stroke-width="5"/>
<path d="M8111,7869 l60,0 l0,60 l-60,0 z" fill="green"/>
<path d="M8141,7899 l-707.5,-511" stroke="black" stroke-width="5"/>
<path d="M1695,6898 l60,0 l0,60 l-60,0 z" fill="green"/>
<path d="M1725,6928 l-70.5,952" stroke="black" stroke-width="5"/>
<path d="M3880,6602 l60,0 l0,60 l-60,0 z" fill="green"/>
<path d="M3910,6632 l228,-725.5" stroke="black" stroke-width="5"/>
<path d="M7096,9259 l60,0 l0,60 l-60,0 z" fill="green"/>
<path d="M7126,9289 l-54,-672.5" stroke="black" stroke-width="5"/>
<path d="M3748,3247 l60,0 l0,60 l-60,0 z" fill="green"/>
<path d="M3778,3277 l66,-168.5" stroke="black" stroke-width="5"/>
<path d="M8606,9837 l60,0 l0,60 l-60,0 z" fill="green"/>
<path d="M8636,9867 l64,66.5" stroke="black" stroke-width="5"/>
<path d="M7896,6845 l60,0 l0,60 l-60,0 z" fill="green"/>
<path d="M7926,6875 l-578.5,-210" stroke="black" stroke-width="5"/>
<path d="M2478,44 l60,0 l0,60 l-60,0 z" fill="green"/>
<path d="M2508,74 l-1234,206" stroke="black" stroke-width="5"/>
<path d="M935,4992 l60,0 l0,60 l-60,0 z" fill="green"/>
<path d="M965,5022 l-165.5,-86.5" stroke="black" stroke-width="5"/>
<path d="M6633,4025 l60,0 l0,60 l-60,0 z" fill="green"/>
<path d="M6663,4055 l-40,1361" stroke="black" stroke-width="5"/>
<path d="M1833,8376 l60,0 l0,60 l-60,0 z" fill="green"/>
<path d="M1863,8406 l181.5,-2389.5" stroke="black" stroke-width="5"/>
<text font-size="196.116135138184" text-anchor="middle" x="3981" y="9978.640647298364">
0
</text>
<text font-size="196.116135138184" text-anchor="middle" x="472" y="7073.6406472983645">
1
</text>
<text font-size="196.116135138184" text-anchor="middle" x="1860.5" y="5348.6406472983645">
2
</text>
<text font-size="196.116135138184" text-anchor="middle" x="2297.5" y="5348.6406472983645">
3
</text>
<text font-size="196.116135138184" text-anchor="middle" x="2458.5" y="4970.6406472983645">
4
</text>
<text font-size="196.116135138184" text-anchor="middle" x="6084.5" y="7469.1406472983645">
5
</text>
<text font-size="196.116135138184" text-anchor="middle" x="7441" y="1753.6406472983645">
6
</text>
<text font-size="196.116135138184" text-anchor="middle" x="929" y="5460.1406472983645">
7
</text>
<text font-size="196.116135138184" text-anchor="middle" x="8251" y="5052.6406472983645">
8
</text>
<text font-size="196.116135138184" text-anchor="middle" x="6028" y="661.1406472983645">
9
</text>
<text font-size="196.116135138184" text-anchor="middle" x="3163" y="2180.6406472983645">
10
</text>
<text font-size="196.116135138184" text-anchor="middle" x="1197.5" y="9530.140647298364">
11
</text>
<text font-size="196.116135138184" text-anchor="middle" x="8412" y="6593.1406472983645">
12
</text>
<text font-size="196.116135138184" text-anchor="middle" x="3589" y="8465.640647298364">
13
</text>
<text font-size="196.116135138184" text-anchor="middle" x="6867" y="8590.640647298364">
14
</text>
<text font-size="196.116135138184" text-anchor="middle" x="3229" y="6582.6406472983645">
15
</text>
<text font-size="196.116135138184" text-anchor="middle" x="4700.5" y="4439.1406472983645">
16
</text>
<text font-size="196.116135138184" text-anchor="middle" x="9506" y="9783.640647298364">
17
</text>
<text font-size="196.116135138184" text-anchor="middle" x="2073" y="723.6406472983645">
18
</text>
<text font-size="196.116135138184" text-anchor="middle" x="6040" y="6583.6406472983645">
19
</text>
<text font-size="196.116135138184" text-anchor="middle" x="7455" y="3227.6406472983645">
20
</text>
<text font-size="196.116135138184" text-anchor="middle" x="2044.5" y="2285.1406472983645">
21
</text>
<text font-size="196.116135138184" text-anchor="middle" x="8550" y="6374.6406472983645">
22
</text>
<text font-size="196.116135138184" text-anchor="middle" x="4700.5" y="7582.1406472983645">
23
</text>
<text font-size="196.116135138184" text-anchor="middle" x="1197.5" y="7597.6406472983645">
24
</text>
<text font-size="196.116135138184" text-anchor="middle" x="3218.5" y="4944.1406472983645">
25
</text>
<text font-size="196.116135138184" text-anchor="middle" x="7634.5" y="9018.640647298364">
26
</text>
<text font-size="196.116135138184" text-anchor="middle" x="472" y="8854.640647298364">
27
</text>
<text font-size="196.116135138184" text-anchor="middle" x="6193.5" y="3029.1406472983645">
28
</text>
<text font-size="196.116135138184" text-anchor="middle" x="2908" y="8819.140647298364">
29
</text>
<text font-size="196.116135138184" text-anchor="middle" x="6105" y="5897.6406472983645">
30
</text>
<text font-size="196.116135138184" text-anchor="middle" x="6799.5" y="8233.140647298364">
31
</text>
<text font-size="196.116135138184" text-anchor="middle" x="5356.5" y="4692.6406472983645">
32
</text>
<text font-size="196.116135138184" text-anchor="middle" x="6119" y="1351.6406472983645">
33
</text>
<text font-size="196.116135138184" text-anchor="middle" x="4406.5" y="1354.1406472983645">
34
</text>
<text font-size="196.116135138184" text-anchor="middle" x="929" y="3978.1406472983645">
35
</text>
<text font-size="196.116135138184" text-anchor="middle" x="5125" y="5357.6406472983645">
36
</text>
<text font-size="196.116135138184" text-anchor="middle" x="4700.5" y="2793.1406472983645">
37
</text>
<text font-size="196.116135138184" text-anchor="middle" x="9180" y="1923.6406472983645">
38
</text>
<text font-size="196.116135138184" text-anchor="middle" x="9318" y="5383.1406472983645">
39
</text>
<text font-size="196.116135138184" text-anchor="middle" x="5960" y="357.6406472983644">
40
</text>
<text font-size="196.116135138184" text-anchor="middle" x="7433.5" y="7456.6406472983645">
41
</text>
<text font-size="196.116135138184" text-anchor="middle" x="1654.5" y="7948.6406472983645">
42
</text>
<text font-size="196.116135138184" text-anchor="middle" x="4138" y="5975.1406472983645">
43
</text>
<text font-size="196.116135138184" text-anchor="middle" x="7072" y="8685.140647298364">
44
</text>
<text font-size="196.116135138184" text-anchor="middle" x="3844" y="3177.1406472983645">
45
</text>
<text font-size="196.116135138184" text-anchor="middle" x="8700" y="10002.140647298364">
46
</text>
<text font-size="196.116135138184" text-anchor="middle" x="7347.5" y="6733.6406472983645">
47
</text>
<text font-size="196.116135138184" text-anchor="middle" x="1274" y="348.6406472983644">
48
</text>
<text font-size="196.116135138184" text-anchor="middle" x="799.5" y="5004.1406472983645">
49
</text>
<text font-size="196.116135138184" text-anchor="middle" x="6623" y="5484.6406472983645">
50
</text>
<text font-size="196.116135138184" text-anchor="middle" x="2044.5" y="6085.1406472983645">
51
</text>
</svg>